# xmcd CD database file
#
# Track frame offsets:
#	183
#	15675
#	33728
#	53085
#	73118
#	85868
#	102870
#	116980
#	134158
#	147268
#	167735
#	183475
#
# Disc length: 2712 seconds
#
# Revision: 0
# Processed by: cddbd v1.5.1PL0 Copyright (c) Steve Scherf et al.
# Submitted via: CDex 1.40Release
#
DISCID=b20a960c
DTITLE=Jeff Turner - Tourist in Paradise
DYEAR=1992
DGENRE=Country
TTITLE0=(Slow Dance) Last Chance
TTITLE1=Baby you'll be may Baby
TTITLE2=Play Ruby play
TTITLE3=Meet me in Montana
TTITLE4=Once you Love
TTITLE5=I got a Life
TTITLE6=Little Alibis
TTITLE7=A Woman like You
TTITLE8=Guitar Talk
TTITLE9=Our Bed of Roses
TTITLE10=Tourist in Paradise
TTITLE11=Rick's Flamingo (A Dream in the Night)
EXTD=YEAR: 1992 ID3G: 2
EXTT0=
EXTT1=
EXTT2=
EXTT3=
EXTT4=
EXTT5=
EXTT6=
EXTT7=
EXTT8=
EXTT9=
EXTT10=
EXTT11=
PLAYORDER=
